<svg xmlns="http://www.w3.org/2000/svg" width="800" height="400" viewBox="0 0 800 400"><defs><linearGradient id="g1" x1="0" y1="0" x2="1" y2="1"><stop offset="0%" stop-color="#3d1f00"/><stop offset="100%" stop-color="#1a0d00"/></linearGradient></defs><rect width="800" height="400" fill="url(#g1)"/><g fill="none" stroke="#e0b94f" stroke-width="1.5" opacity="0.15"><path d="M100,100 L130,82 L160,100 L160,136 L130,154 L100,136 Z"/><path d="M160,136 L190,118 L220,136 L220,172 L190,190 L160,172 Z"/><path d="M130,154 L160,136 L190,154 L190,190 L160,208 L130,190 Z"/><path d="M220,100 L250,82 L280,100 L280,136 L250,154 L220,136 Z"/></g><g fill="none" stroke="#e0b94f" stroke-width="1.5" opacity="0.12"><path d="M500,220 L530,202 L560,220 L560,256 L530,274 L500,256 Z"/><path d="M560,256 L590,238 L620,256 L620,292 L590,310 L560,292 Z"/><path d="M530,274 L560,256 L590,274 L590,310 L560,328 L530,310 Z"/><path d="M620,220 L650,202 L680,220 L680,256 L650,274 L620,256 Z"/><path d="M470,256 L500,238 L530,256 L530,292 L500,310 L470,292 Z"/></g><circle cx="700" cy="80" r="40" fill="#e0b94f" opacity="0.08"/><circle cx="80" cy="320" r="60" fill="#e0b94f" opacity="0.06"/><text x="400" y="200" text-anchor="middle" font-family="Arial,sans-serif" font-weight="700" font-size="28" fill="#e0b94f" opacity="0.2" letter-spacing="4">SINGLE PACKS</text></svg>